# xmcd CD database file
#
# Track frame offsets:
#	150
#	22031
#	41780
#	58261
#	74573
#	92046
#	109691
#	138914
#	176911
#	220036
#	248752
#	280354
#	308161
#
# Disc length: 4518 seconds
#
# Revision: 0
# Processed by: cddbd v1.5.2PL0 Copyright (c) Steve Scherf et al.
# Submitted via: CDex 1.70beta2
#
DISCID=c611a40d
DTITLE=Ben Webster - Storyville - Masters of Jazz
DYEAR=2006
DGENRE=Jazz
TTITLE0=Johnny Come Lately
TTITLE1=You'd Be So Nice To Come Home To
TTITLE2=Stompy Jones
TTITLE3=Cotton Tail
TTITLE4=Going Home
TTITLE5=Come Sunday
TTITLE6=Our Blues
TTITLE7=I Got It Bad And That Ain't Good
TTITLE8=C Jam Blues
TTITLE9=Stardust
TTITLE10=In A Mellotone
TTITLE11=Sunday
TTITLE12=Old Folks
EXTD=YEAR: 2006
EXTT0=
EXTT1=
EXTT2=
EXTT3=
EXTT4=
EXTT5=
EXTT6=
EXTT7=
EXTT8=
EXTT9=
EXTT10=
EXTT11=
EXTT12=
PLAYORDER=
